<svg width="36" height="36" viewBox="0 0 36 36" fill="none" xmlns="http://www.w3.org/2000/svg">
<path opacity="0.4" d="M24.255 15.09H11.745C9.97498 15.09 9.35999 13.905 10.395 12.465L16.65 3.70501C17.385 2.65501 18.615 2.65501 19.35 3.70501L25.605 12.465C26.64 13.905 26.025 15.09 24.255 15.09Z" fill="#246500"/>
<path d="M26.3849 27H9.61489C7.24489 27 6.43489 25.425 7.82989 23.505L13.8149 15.09H22.1849L28.1699 23.505C29.5649 25.425 28.7549 27 26.3849 27Z" fill="#246500"/>
<path d="M19.125 27V33C19.125 33.615 18.615 34.125 18 34.125C17.385 34.125 16.875 33.615 16.875 33V27H19.125Z" fill="#246500"/>
</svg>
