<svg width="36" height="36" viewBox="0 0 36 36" fill="none" xmlns="http://www.w3.org/2000/svg">
<path opacity="0.6" d="M26.685 15.705V18H3V15.705C3 12.225 5.835 9.39001 9.315 9.39001H20.37C23.85 9.39001 26.685 12.225 26.685 15.705Z" fill="#D04B1E"/>
<path opacity="0.4" d="M26.685 18V26.685C26.685 30.165 23.85 33 20.37 33H9.315C5.835 33 3 30.165 3 26.685V18H26.685Z" fill="#D04B1E"/>
<path d="M8.25 7.67999C7.635 7.67999 7.125 7.16999 7.125 6.55499V3.92999C7.125 3.31499 7.635 2.80499 8.25 2.80499C8.865 2.80499 9.375 3.31499 9.375 3.92999V6.55499C9.375 7.18499 8.865 7.67999 8.25 7.67999Z" fill="#D04B1E"/>
<path d="M14.25 7.67999C13.635 7.67999 13.125 7.16999 13.125 6.55499V3.92999C13.125 3.31499 13.635 2.80499 14.25 2.80499C14.865 2.80499 15.375 3.31499 15.375 3.92999V6.55499C15.375 7.18499 14.865 7.67999 14.25 7.67999Z" fill="#D04B1E"/>
<path d="M20.25 7.67999C19.635 7.67999 19.125 7.16999 19.125 6.55499V3.92999C19.125 3.31499 19.635 2.80499 20.25 2.80499C20.865 2.80499 21.375 3.31499 21.375 3.92999V6.55499C21.375 7.18499 20.865 7.67999 20.25 7.67999Z" fill="#D04B1E"/>
<path d="M32.475 21.48C32.475 24.705 29.865 27.315 26.64 27.315V15.63C29.85 15.63 32.475 18.255 32.475 21.48Z" fill="#D04B1E"/>
</svg>
