<svg width="36" height="36" viewBox="0 0 36 36" fill="none" xmlns="http://www.w3.org/2000/svg">
<path d="M28.995 8.52001L19.59 3.45001C18.6 2.91001 17.4 2.91001 16.41 3.45001L7.005 8.52001C6.315 8.89501 5.895 9.61501 5.895 10.44C5.895 11.25 6.315 11.985 7.005 12.36L16.41 17.43C16.905 17.7 17.46 17.835 18 17.835C18.54 17.835 19.095 17.7 19.59 17.43L28.995 12.36C29.685 11.985 30.105 11.265 30.105 10.44C30.105 9.61501 29.685 8.89501 28.995 8.52001Z" fill="#5E4FB8"/>
<path opacity="0.4" d="M14.865 19.185L6.105 14.805C5.43 14.475 4.65 14.505 4.02 14.895C3.375 15.3 3 15.975 3 16.725V24.99C3 26.415 3.795 27.705 5.07 28.35L13.815 32.73C14.115 32.88 14.445 32.955 14.775 32.955C15.165 32.955 15.555 32.85 15.9 32.64C16.545 32.25 16.92 31.56 16.92 30.81V22.545C16.935 21.105 16.14 19.815 14.865 19.185Z" fill="#5E4FB8"/>
<path opacity="0.4" d="M31.98 14.895C31.335 14.505 30.555 14.46 29.895 14.805L21.15 19.185C19.875 19.83 19.08 21.105 19.08 22.545V30.81C19.08 31.56 19.455 32.25 20.1 32.64C20.445 32.85 20.835 32.955 21.225 32.955C21.555 32.955 21.885 32.88 22.185 32.73L30.93 28.35C32.205 27.705 33 26.43 33 24.99V16.725C33 15.975 32.625 15.3 31.98 14.895Z" fill="#5E4FB8"/>
</svg>
